<?xml version="1.0" encoding="iso-8859-1"?>
<!-- Generator: Adobe Illustrator 18.0.0, SVG Export Plug-In . SVG Version: 6.00 Build 0)  -->
<!DOCTYPE svg PUBLIC "-//W3C//DTD SVG 1.1//EN" "http://www.w3.org/Graphics/SVG/1.1/DTD/svg11.dtd">
<svg version="1.1" id="Capa_1" xmlns="http://www.w3.org/2000/svg" xmlns:xlink="http://www.w3.org/1999/xlink" x="0px" y="0px"
	 viewBox="0 0 402.309 402.309" style="enable-background:new 0 0 402.309 402.309;" xml:space="preserve">
<g>
	<path d="M127.339,321.143H15.414l14.693-272.98h196.972l7.604,141.349c0.222,4.136,3.747,7.302,7.893,7.086
		c4.136-0.223,7.309-3.756,7.086-7.892L241.676,40.26c-0.214-3.98-3.504-7.097-7.489-7.097H23c-3.985,0-7.275,3.117-7.489,7.097
		l-15.5,287.98c-0.11,2.056,0.629,4.067,2.045,5.562c1.417,1.495,3.385,2.341,5.444,2.341h119.839c4.143,0,7.5-3.358,7.5-7.5
		S131.482,321.143,127.339,321.143z"/>
	<path d="M71.482,61.035c-4.143,0-7.5,3.358-7.5,7.5v35.124c0,33.911,27.589,61.5,61.5,61.5s61.5-27.589,61.5-61.5V68.535
		c0-4.142-3.357-7.5-7.5-7.5s-7.5,3.358-7.5,7.5v35.124c0,25.64-20.859,46.5-46.5,46.5s-46.5-20.86-46.5-46.5V68.535
		C78.982,64.393,75.625,61.035,71.482,61.035z"/>
	<path d="M394.809,205.653h-20.816l-4.399-82.893c-0.211-3.982-3.502-7.103-7.489-7.103h-11.999v-7.645
		c0-14.807-12.046-26.853-26.853-26.853s-26.854,12.046-26.854,26.853v7.645h-9.808c-3.987,0-7.278,3.121-7.489,7.103l-4.398,82.893
		H151.82c-4.143,0-7.5,3.358-7.5,7.5v148.493c0,4.142,3.357,7.5,7.5,7.5h242.988c4.143,0,7.5-3.358,7.5-7.5V213.153
		C402.309,209.011,398.951,205.653,394.809,205.653z M311.398,108.013c0-6.536,5.317-11.853,11.854-11.853
		c6.535,0,11.853,5.317,11.853,11.853v7.645h-23.706V108.013z M293.703,130.658h61.288l3.98,74.995h-69.248L293.703,130.658z
		 M387.309,220.653v22.498H159.32v-22.498H387.309z M159.32,354.146v-95.994h227.988v95.994H159.32z"/>
</g>
<g>
</g>
<g>
</g>
<g>
</g>
<g>
</g>
<g>
</g>
<g>
</g>
<g>
</g>
<g>
</g>
<g>
</g>
<g>
</g>
<g>
</g>
<g>
</g>
<g>
</g>
<g>
</g>
<g>
</g>
</svg>
