<?xml version="1.0" encoding="iso-8859-1"?>
<!-- Generator: Adobe Illustrator 19.0.0, SVG Export Plug-In . SVG Version: 6.00 Build 0)  -->
<svg version="1.1" id="Layer_1" xmlns="http://www.w3.org/2000/svg" xmlns:xlink="http://www.w3.org/1999/xlink" x="0px" y="0px"
	 viewBox="0 0 511.999 511.999" style="enable-background:new 0 0 511.999 511.999;" xml:space="preserve">
<g>
	<g>
		<path d="M431.613,89.895l13.115-13.115c3.84-3.84,3.84-10.065,0-13.904c-3.84-3.841-10.065-3.84-13.904,0l-13.115,13.115
			l-63.287-14.038c-5.299-1.173-10.552,2.17-11.728,7.47c-1.176,5.301,2.168,10.552,7.47,11.728l51.06,11.325l-24.102,24.102
			c-19.325-18.492-42.473-33.009-68.122-42.248c-0.225-0.1-0.451-0.199-0.688-0.282c-0.203-0.072-0.397-0.113-0.596-0.17
			c-20.025-7.052-41.544-10.902-63.949-10.902c-53.509,0-101.998,21.891-136.993,57.182c-0.691,0.544-1.302,1.167-1.813,1.856
			c-33.547,34.741-54.218,81.993-54.218,133.987c0,38.005,11.047,73.478,30.09,103.385c0.354,0.735,0.804,1.428,1.341,2.065
			c34.501,52.692,94.045,87.576,161.594,87.576c14.702,0,29.022-1.66,42.79-4.788c0.142-0.03,0.284-0.045,0.426-0.081
			c0.043-0.01,0.083-0.028,0.126-0.039c85.634-19.722,149.683-96.579,149.683-188.117c0-47.696-17.397-91.4-46.17-125.119
			l24.504-24.503l11.325,51.06c1.017,4.584,5.081,7.704,9.59,7.704c0.705,0,1.421-0.076,2.138-0.235
			c5.301-1.176,8.646-6.426,7.47-11.728L431.613,89.895z M93.4,303.497v28.963l-2.985,4.317
			C77.651,312.639,70.407,285.153,70.407,256c0.001-41.895,14.941-80.364,39.77-110.367l37.786,82.53l-14.542,38.498
			c-3.495,2.524-10.253,7.438-16.949,12.501C95.528,294.999,93.4,297.912,93.4,303.497z M243.768,429.36
			c-16.004,0.001-31.504-2.189-46.229-6.268l4.566-51.633l30.757-23.923c10.099,6.493,20.383,13.518,24.127,16.691
			c1.245,6.081,4.878,21.478,15.436,62.751C263.099,428.535,253.529,429.36,243.768,429.36z M291.616,422.641
			c-6.435-25.2-14.756-58.341-15.632-63.427c-0.279-5.648-4.086-9.27-21.263-20.836c-8.507-5.729-16.861-10.965-17.213-11.185
			c-3.499-2.191-7.995-1.964-11.254,0.573l-39.601,30.8c-2.156,1.677-3.517,4.174-3.757,6.894l-4.518,51.083
			c-31.109-12.717-57.723-34.219-76.746-61.412l9.69-14.013c1.137-1.643,1.745-3.595,1.745-5.592v-28.508
			c5.377-4.877,20.915-16.6,34.221-26.109c1.584-1.131,2.795-2.706,3.482-4.525l17.04-45.111c0.928-2.457,0.835-5.181-0.258-7.567
			l-42.851-93.59c31.08-29.412,73.002-47.478,119.067-47.478c15.57,0,30.662,2.075,45.026,5.943
			c-0.018,0.029-0.037,0.055-0.055,0.084c-3.908,5.941-9.158,14.259-15.603,24.72c-10.927,17.734-21.695,35.807-21.802,35.988
			c-1.08,1.813-1.548,3.925-1.335,6.025l6.715,66.109l-33.699,13.918c-3.68,1.519-6.079,5.107-6.079,9.087v53.658
			c0,5.43,4.402,9.832,9.832,9.832h51.117c3.29,0,6.363-1.647,8.187-4.386l19.626-29.504l34.857,8.359
			c3.429,0.823,7.041-0.254,9.457-2.828l18.463-19.646l48.617-0.946C415.742,336.716,363.076,402.092,291.616,422.641z
			 M416.328,239.398l-52.379,1.02c-2.647,0.051-5.161,1.168-6.973,3.096l-17.39,18.503l-35.984-8.63
			c-4.009-0.962-8.195,0.682-10.48,4.115l-20.511,30.835h-36.014v-37.249l34.389-14.203c4.017-1.657,6.468-5.755,6.029-10.078
			l-7.126-70.159c14.774-24.739,31.018-51.077,38.231-61.617c20,8.024,38.165,19.675,53.688,34.13l-18.838-4.178
			c-5.304-1.175-10.552,2.168-11.728,7.47c-1.175,5.301,2.168,10.552,7.47,11.728l20.22,4.485l4.485,20.22
			c1.017,4.584,5.08,7.706,9.59,7.704c0.705,0,1.421-0.076,2.138-0.235c5.301-1.176,8.646-6.426,7.47-11.728l-3.819-17.218
			C399.491,173.094,413.023,204.774,416.328,239.398z"/>
	</g>
</g>
<g>
	<g>
		<path d="M509.13,256.008l-24.463-24.538c-3.773-3.783-9.878-3.862-13.747-0.176l-25.745,24.538
			c-3.932,3.747-4.081,9.97-0.334,13.901c1.932,2.027,4.523,3.049,7.118,3.049c2.437,0,4.879-0.901,6.781-2.715l9.061-8.636
			c-2.895,121.072-102.279,218.672-224.035,218.672C120.197,480.104,19.664,379.572,19.664,256S120.197,31.895,243.768,31.895
			c5.43,0,9.832-4.402,9.832-9.832c0-5.43-4.402-9.832-9.832-9.832C109.355,12.231,0,121.586,0,256s109.355,243.768,243.768,243.768
			c132.368,0,240.43-106.05,243.69-237.646l7.745,7.77c3.833,3.845,10.059,3.854,13.905,0.021S512.964,259.854,509.13,256.008z"/>
	</g>
</g>
<g>
</g>
<g>
</g>
<g>
</g>
<g>
</g>
<g>
</g>
<g>
</g>
<g>
</g>
<g>
</g>
<g>
</g>
<g>
</g>
<g>
</g>
<g>
</g>
<g>
</g>
<g>
</g>
<g>
</g>
</svg>
